<svg height="512pt" viewBox="-96 0 512 512" width="512pt" xmlns="http://www.w3.org/2000/svg"><path d="m288 335.59375h-256c-5.886719 0-10.667969 4.78125-10.667969 10.667969v112.40625c0 29.394531 23.9375 53.332031 53.335938 53.332031h170.664062c29.398438 0 53.335938-23.9375 53.335938-53.332031v-112.40625c0-5.886719-4.78125-10.667969-10.667969-10.667969zm0 0" fill="#eceff1"/><path d="m160 85.332031c-76.457031 0-138.667969 62.210938-138.667969 138.667969v27.050781c0 5.886719 4.78125 10.667969 10.667969 10.667969h256c2.835938 0 5.546875-1.132812 7.550781-3.117188 2.007813-1.984374 3.117188-4.714843 3.117188-7.53125v-27.070312c0-76.457031-62.210938-138.667969-138.667969-138.667969zm0 0" fill="#eceff1"/><path d="m266.667969 234.667969h-213.335938c-29.394531 0-53.332031 23.933593-53.332031 53.332031v21.332031c0 29.398438 23.9375 53.335938 53.332031 53.335938h213.335938c29.394531 0 53.332031-23.9375 53.332031-53.335938v-21.332031c0-29.398438-23.9375-53.332031-53.332031-53.332031zm0 0" fill="#00bcd4"/><path d="m136.46875 274.515625c7.445312 22.359375-4.628906 46.53125-26.984375 53.976563-22.359375 7.445312-46.53125-4.628907-53.976563-26.988282-7.445312-22.355468 4.628907-46.527344 26.988282-53.972656zm0 0" fill="#fff"/><path d="m183.53125 274.515625c-7.445312 22.359375 4.628906 46.53125 26.984375 53.976563 22.359375 7.445312 46.53125-4.628907 53.976563-26.988282 7.445312-22.355468-4.628907-46.527344-26.988282-53.972656zm0 0" fill="#fff"/><path d="m213.332031 394.667969h-106.664062c-17.664063 0-32 14.335937-32 32 0 17.664062 14.335937 32 32 32h106.664062c17.664063 0 32-14.335938 32-32 0-17.664063-14.335937-32-32-32zm0 0" fill="#fafafa"/><path d="m181.332031 21.332031c0 11.785157-9.550781 21.335938-21.332031 21.335938s-21.332031-9.550781-21.332031-21.335938c0-11.78125 9.550781-21.332031 21.332031-21.332031s21.332031 9.550781 21.332031 21.332031zm0 0" fill="#4caf50"/><path d="m245.332031 512h-170.664062c-29.398438 0-53.335938-23.9375-53.335938-53.332031v-112.40625c0-5.886719 4.78125-10.667969 10.667969-10.667969s10.667969 4.78125 10.667969 10.667969v112.40625c0 17.640625 14.355469 32 32 32h170.664062c17.644531 0 32-14.359375 32-32v-112.40625c0-5.886719 4.78125-10.667969 10.667969-10.667969s10.667969 4.78125 10.667969 10.667969v112.40625c0 29.394531-23.9375 53.332031-53.335938 53.332031zm0 0"/><path d="m288 261.738281c-5.886719 0-10.667969-4.777343-10.667969-10.667969v-27.070312c0-64.703125-52.628906-117.332031-117.332031-117.332031s-117.332031 52.628906-117.332031 117.332031v27.050781c0 5.886719-4.78125 10.667969-10.667969 10.667969s-10.667969-4.78125-10.667969-10.667969v-27.050781c0-76.457031 62.210938-138.667969 138.667969-138.667969s138.667969 62.210938 138.667969 138.667969v27.070312c0 5.890626-4.78125 10.667969-10.667969 10.667969zm0 0"/><path d="m266.667969 362.667969h-213.335938c-29.394531 0-53.332031-23.9375-53.332031-53.335938v-21.332031c0-29.398438 23.9375-53.332031 53.332031-53.332031h213.335938c29.394531 0 53.332031 23.933593 53.332031 53.332031v21.332031c0 29.398438-23.9375 53.335938-53.332031 53.335938zm-213.335938-106.667969c-17.640625 0-32 14.355469-32 32v21.332031c0 17.644531 14.359375 32 32 32h213.335938c17.640625 0 32-14.355469 32-32v-21.332031c0-17.644531-14.359375-32-32-32zm0 0"/><path d="m96.042969 341.332031c-22.335938 0-43.199219-14.144531-50.644531-36.457031-9.300782-27.90625 5.824218-58.15625 33.726562-67.457031 2.6875-.894531 5.609375-.683594 8.148438.578125l53.972656 26.984375c2.539062 1.28125 4.460937 3.5 5.335937 6.167969 9.300781 27.902343-5.824219 58.152343-33.730469 67.453124-5.566406 1.855469-11.21875 2.730469-16.808593 2.730469zm-14.015625-82.132812c-14.230469 6.914062-21.527344 23.511719-16.40625 38.914062 5.589844 16.746094 23.746094 25.832031 40.46875 20.242188 15.402344-5.140625 24.320312-20.90625 21.3125-36.433594zm0 0"/><path d="m223.980469 341.332031c-5.570313 0-11.246094-.875-16.832031-2.730469-27.90625-9.300781-43.03125-39.550781-33.730469-67.453124.898437-2.667969 2.816406-4.886719 5.335937-6.167969l53.972656-26.984375c2.539063-1.261719 5.460938-1.496094 8.148438-.578125 27.902344 9.300781 43.027344 39.550781 33.726562 67.457031-7.445312 22.3125-28.308593 36.457031-50.621093 36.457031zm-31.382813-59.433593c-3.03125 15.53125 5.886719 31.316406 21.3125 36.457031 8.105469 2.691406 16.765625 2.09375 24.425782-1.746094 7.636718-3.839844 13.332031-10.390625 16.042968-18.519531 5.121094-15.402344-2.15625-32-16.40625-38.910156zm0 0"/><path d="m213.332031 394.667969h-106.664062c-17.664063 0-32 14.335937-32 32 0 17.664062 14.335937 32 32 32h106.664062c17.664063 0 32-14.335938 32-32 0-17.664063-14.335937-32-32-32zm0 0" fill="#fff"/><path d="m213.332031 469.332031h-106.664062c-23.53125 0-42.667969-19.132812-42.667969-42.664062s19.136719-42.667969 42.667969-42.667969h106.664062c23.53125 0 42.667969 19.136719 42.667969 42.667969s-19.136719 42.664062-42.667969 42.664062zm-106.664062-64c-11.757813 0-21.335938 9.578125-21.335938 21.335938 0 11.753906 9.578125 21.332031 21.335938 21.332031h106.664062c11.757813 0 21.335938-9.578125 21.335938-21.332031 0-11.757813-9.578125-21.335938-21.335938-21.335938zm0 0"/><path d="m117.332031 469.332031c-5.886719 0-10.664062-4.777343-10.664062-10.664062v-64c0-5.890625 4.777343-10.667969 10.664062-10.667969 5.890625 0 10.667969 4.777344 10.667969 10.667969v64c0 5.886719-4.777344 10.664062-10.667969 10.664062zm0 0"/><path d="m160 469.332031c-5.886719 0-10.667969-4.777343-10.667969-10.664062v-64c0-5.890625 4.78125-10.667969 10.667969-10.667969s10.667969 4.777344 10.667969 10.667969v64c0 5.886719-4.78125 10.664062-10.667969 10.664062zm0 0"/><path d="m202.667969 469.332031c-5.890625 0-10.667969-4.777343-10.667969-10.664062v-64c0-5.890625 4.777344-10.667969 10.667969-10.667969 5.886719 0 10.664062 4.777344 10.664062 10.667969v64c0 5.886719-4.777343 10.664062-10.664062 10.664062zm0 0"/><path d="m160 106.667969c-5.886719 0-10.667969-4.78125-10.667969-10.667969v-64c0-5.886719 4.78125-10.667969 10.667969-10.667969s10.667969 4.78125 10.667969 10.667969v64c0 5.886719-4.78125 10.667969-10.667969 10.667969zm0 0"/><path d="m160 42.667969c-11.753906 0-21.332031-9.578125-21.332031-21.335938 0-11.753906 9.578125-21.332031 21.332031-21.332031s21.332031 9.578125 21.332031 21.332031c0 11.757813-9.578125 21.335938-21.332031 21.335938zm0-21.355469c0 .019531 0 .019531 0 0l10.667969.019531zm0 0"/><path d="m106.667969 288c0 5.890625-4.777344 10.667969-10.667969 10.667969s-10.667969-4.777344-10.667969-10.667969 4.777344-10.667969 10.667969-10.667969 10.667969 4.777344 10.667969 10.667969zm0 0"/><path d="m234.667969 288c0 5.890625-4.777344 10.667969-10.667969 10.667969s-10.667969-4.777344-10.667969-10.667969 4.777344-10.667969 10.667969-10.667969 10.667969 4.777344 10.667969 10.667969zm0 0"/></svg>